<svg width="150" height="145" viewBox="0 0 150 145" fill="none" xmlns="http://www.w3.org/2000/svg">
<rect width="150" height="145" rx="15" fill="#D9D9D9"/>
<path d="M111 48H39C34.6 48 31 51.6 31 56V88C31 92.4 34.6 96 39 96H111C115.4 96 119 92.4 119 88V56C119 51.6 115.4 48 111 48ZM71 76H59V88H51V76H39V68H51V56H59V68H71V76ZM89 84C85.68 84 83 81.32 83 78C83 74.68 85.68 72 89 72C92.32 72 95 74.68 95 78C95 81.32 92.32 84 89 84ZM105 72C101.68 72 99 69.32 99 66C99 62.68 101.68 60 105 60C108.32 60 111 62.68 111 66C111 69.32 108.32 72 105 72Z" fill="#8A8A8A"/>
</svg>
