<svg width="150" height="145" viewBox="0 0 150 145" fill="none" xmlns="http://www.w3.org/2000/svg">
<rect width="150" height="145" rx="15" fill="#CC7272"/>
<path d="M111 49H39C34.6 49 31 52.6 31 57V89C31 93.4 34.6 97 39 97H111C115.4 97 119 93.4 119 89V57C119 52.6 115.4 49 111 49ZM71 77H59V89H51V77H39V69H51V57H59V69H71V77ZM89 85C85.68 85 83 82.32 83 79C83 75.68 85.68 73 89 73C92.32 73 95 75.68 95 79C95 82.32 92.32 85 89 85ZM105 73C101.68 73 99 70.32 99 67C99 63.68 101.68 61 105 61C108.32 61 111 63.68 111 67C111 70.32 108.32 73 105 73Z" fill="white"/>
</svg>
