<?xml version="1.0" standalone="no"?>
<!DOCTYPE svg PUBLIC "-//W3C//DTD SVG 20010904//EN"
 "http://www.w3.org/TR/2001/REC-SVG-20010904/DTD/svg10.dtd">
<svg version="1.0" xmlns="http://www.w3.org/2000/svg"
 width="381.000000pt" height="381.000000pt" viewBox="0 0 381.000000 381.000000"
 preserveAspectRatio="xMidYMid meet">
<metadata>
Created by potrace 1.14, written by Peter Selinger 2001-2017
</metadata>
<g transform="translate(0.000000,381.000000) scale(0.100000,-0.100000)"
fill="#000000" stroke="none">
<path d="M1770 3798 c-50 -10 -60 -14 -145 -53 -377 -173 -487 -665 -219 -988
l52 -64 -54 -39 c-92 -65 -162 -192 -166 -298 -1 -20 3 -41 8 -46 5 -5 72 -11
148 -12 130 -3 139 -4 143 -23 5 -32 6 -317 0 -350 -3 -16 -8 -50 -12 -75 -9
-57 -44 -209 -54 -235 -5 -11 -25 -67 -46 -125 -37 -107 -197 -441 -218 -458
-7 -5 -33 -12 -59 -15 -128 -15 -199 -104 -199 -249 0 -53 -4 -68 -15 -68 -8
0 -44 -14 -79 -32 -98 -47 -171 -129 -211 -233 -16 -42 -19 -77 -19 -214 l0
-163 35 -29 35 -29 1212 2 1213 3 27 28 c28 27 28 30 31 165 5 204 -22 291
-124 394 -45 46 -118 89 -176 103 -26 7 -27 9 -27 78 0 80 -15 127 -58 174
-34 39 -105 72 -154 73 -20 0 -41 6 -47 13 -18 21 -119 219 -162 316 -54 124
-116 309 -140 420 -31 141 -37 239 -30 459 l3 72 143 0 c166 0 166 0 152 88
-16 109 -87 217 -181 280 l-38 25 29 31 c113 121 173 273 174 440 0 94 -5 127
-33 208 -64 192 -231 352 -429 413 -64 19 -243 27 -310 13z"/>
</g>
</svg>
